<svg xmlns="http://www.w3.org/2000/svg" width="32" height="29"><path fill-rule="evenodd" fill="#222" d="M31.899 7.565l-5.406 12.412a1.185 1.185 0 01-1.084.709H10.554a1.183 1.183 0 01-1.144-.867L4.577 2.364H1.184A1.187 1.187 0 010 1.182C0 .531.533-.001 1.184-.001h4.28c.533 0 1.007.355 1.145.867l4.833 17.456H24.62l4.379-10.048H14.401a1.187 1.187 0 01-1.184-1.182c0-.65.533-1.182 1.184-1.182h16.413c.394 0 .769.197.986.532.217.335.257.748.099 1.123zM9.429 23.641a2.684 2.684 0 012.683 2.679 2.683 2.683 0 01-5.365 0 2.684 2.684 0 012.682-2.679zm16.591 0c1.48-.099 2.762 1.024 2.861 2.482.039.729-.178 1.419-.651 1.95a2.68 2.68 0 01-1.835.926h-.197c-1.401 0-2.565-1.103-2.663-2.502-.099-1.457 1.006-2.758 2.485-2.856z"/></svg>