<svg xmlns="http://www.w3.org/2000/svg" viewbox="0 0 36.092 36.092" width="12" height="12"><path fill="#e4af48" d="M36.043 13.909a1.006 1.006 0 00-.852-.688L23.642 12.05 18.96 1.431a1 1 0 00-1.829.001l-4.683 10.62L.9 13.222a1 1 0 00-.566 1.743l8.651 7.734-2.453 11.345a1 1 0 001.482 1.076l10.031-5.838 10.029 5.838a1.004 1.004 0 001.093-.054c.319-.231.474-.633.39-1.021L27.104 22.7l8.651-7.735a1 1 0 00.288-1.056zm-10.704 7.685a.99.99 0 00-.312.957l2.099 9.699-8.574-4.99c-.001 0-.002 0-.003-.002V5.447l3.503 7.943c.146.33.456.555.813.592l9.869 1.001-7.395 6.611z"/></svg>